<svg xmlns="http://www.w3.org/2000/svg" width="1092" height="622" viewBox="0 0 1092 622" version="1.1"><path d="M 157 213.564 L 157 224.127 167.573 254.304 C 173.389 270.901, 178.276 284.609, 178.433 284.767 C 178.591 284.924, 191.670 280.316, 207.498 274.527 C 223.326 268.737, 236.392 264, 236.532 264 C 236.673 264, 236.951 260.512, 237.150 256.250 C 237.535 248.004, 239.864 241.954, 244.574 236.961 L 246.969 234.423 237.901 218.711 L 228.833 203 192.917 203 L 157 203 157 213.564 M 242.024 203.750 C 242.037 204.162, 245.144 209.868, 248.928 216.430 L 255.808 228.360 266.258 228.430 L 276.708 228.500 279.832 223 C 281.550 219.975, 284.800 214.238, 287.054 210.250 L 291.153 203 266.576 203 C 253.059 203, 242.011 203.338, 242.024 203.750 M 294.655 218.565 C 284.916 235.625, 285.217 233.873, 290.820 240.899 L 292.733 243.298 334.367 227.917 L 376 212.536 376 207.768 L 376 203 339.750 203.035 L 303.500 203.070 294.655 218.565 M 335.258 238.924 C 296.904 253.170, 296.016 253.561, 296.008 256.201 C 295.990 262.204, 293.690 269.110, 289.915 274.500 C 287.743 277.600, 286.125 280.443, 286.319 280.818 C 286.513 281.193, 295.804 297.363, 306.964 316.750 C 322.440 343.632, 327.709 352, 329.161 352 C 330.208 352, 332.663 352.668, 334.617 353.484 L 338.169 354.968 356.334 340.279 C 366.325 332.200, 374.831 325.119, 375.235 324.545 C 376.205 323.165, 376.220 225.231, 375.250 224.733 C 374.837 224.521, 356.841 230.907, 335.258 238.924 M 157 275.440 C 157 291.971, 157.122 293.164, 158.750 292.505 C 159.713 292.115, 161.850 291.330, 163.500 290.761 C 165.150 290.192, 166.874 289.392, 167.330 288.983 C 167.985 288.397, 158.728 259.748, 157.346 258.083 C 157.156 257.854, 157 265.665, 157 275.440 M 223 280.110 C 214.475 283.352, 206.914 285.784, 206.198 285.514 C 205.482 285.244, 205.123 285.389, 205.400 285.837 C 205.676 286.285, 200.525 288.598, 193.951 290.976 C 187.378 293.355, 182 295.361, 182 295.435 C 182 295.925, 199.969 346.302, 200.232 346.550 C 200.379 346.689, 202.181 346.959, 204.235 347.151 L 207.970 347.500 227.528 313.600 L 247.086 279.699 244.356 276.850 C 242.854 275.282, 240.923 274.048, 240.063 274.107 C 239.203 274.166, 231.525 276.867, 223 280.110 M 236.726 319.191 L 217.053 353.252 219.026 355.761 C 220.112 357.141, 221 358.884, 221 359.635 C 221 361.771, 315.214 361.652, 316.989 359.514 C 318.288 357.948, 318.005 357.421, 287.697 305 C 276.631 285.859, 276.369 285.509, 273.462 285.970 C 269.095 286.662, 262.919 286.594, 259.449 285.815 L 256.399 285.130 236.726 319.191 M 164.250 301.851 L 157 304.479 157 332.739 L 157 361 170.474 361 L 183.949 361 185.595 357.750 C 186.500 355.962, 187.929 353.716, 188.769 352.757 C 190.159 351.172, 189.501 348.732, 181.494 325.757 C 176.652 311.866, 172.423 300.213, 172.095 299.862 C 171.768 299.511, 168.238 300.406, 164.250 301.851 M 370.538 342.465 C 368.359 344.330, 366.210 345.630, 365.763 345.354 C 365.316 345.077, 365.074 345.272, 365.225 345.786 C 365.376 346.300, 361.818 349.702, 357.319 353.345 C 352.819 356.988, 348.855 360.426, 348.510 360.984 C 348.096 361.654, 352.678 362, 361.941 362 L 376 362 376 350.500 C 376 344.175, 375.663 339.017, 375.250 339.038 C 374.837 339.058, 372.717 340.601, 370.538 342.465 M 157 396.500 L 157 421 161.250 420.981 L 165.500 420.962 177.094 400.796 L 188.689 380.630 186.344 377.176 C 185.055 375.275, 184 373.334, 184 372.860 C 184 372.387, 177.925 372, 170.500 372 L 157 372 157 396.500 M 220.916 374.750 C 220.347 376.262, 218.376 379.075, 216.537 381 L 213.193 384.500 219.732 402.750 L 226.271 421 241.548 421 L 256.826 421 286.351 397.250 C 302.589 384.188, 315.903 373.163, 315.938 372.750 C 315.972 372.337, 294.839 372, 268.975 372 L 221.950 372 220.916 374.750 M 342.311 374.226 C 341.498 376.044, 341.774 377.260, 343.683 380.287 C 344.997 382.370, 345.761 384.577, 345.382 385.192 C 345.002 385.806, 345.104 386.054, 345.609 385.742 C 346.114 385.430, 351.175 393.235, 356.857 403.087 L 367.186 421 371.611 421 L 376.036 421 375.768 396.750 L 375.500 372.500 359.414 372.226 C 343.523 371.955, 343.315 371.980, 342.311 374.226 M 299.416 400.350 L 274.620 420.500 313.965 420.762 C 335.605 420.906, 353.514 420.820, 353.763 420.571 C 354.563 419.770, 331.578 380.974, 330.520 381.339 C 329.959 381.533, 328.310 381.356, 326.856 380.946 C 324.480 380.276, 321.689 382.250, 299.416 400.350 M 193.903 393.250 C 191.602 397.238, 189.024 401.713, 188.176 403.196 C 187.327 404.678, 186.196 405.621, 185.662 405.291 C 185.113 404.952, 185.013 405.212, 185.432 405.889 C 185.839 406.548, 185.755 407.630, 185.245 408.294 C 184.735 408.957, 182.863 412.087, 181.085 415.250 L 177.853 421 196.372 421 L 214.890 421 210.002 407.104 C 203.028 387.280, 202.427 386, 200.095 386 C 198.655 386, 196.906 388.048, 193.903 393.250" stroke="none" fill="#1c5474" fill-rule="evenodd"/><path d="M -0 311.001 L -0 622.002 546.250 621.751 L 1092.500 621.500 1092.752 310.750 L 1093.003 0 546.502 0 L 0 0 -0 311.001 M 0.494 311.500 C 0.494 482.550, 0.609 552.674, 0.750 467.331 C 0.891 381.988, 0.891 242.038, 0.750 156.331 C 0.609 70.624, 0.494 140.450, 0.494 311.500 M 157 213.564 L 157 224.127 167.573 254.304 C 173.389 270.901, 178.276 284.609, 178.433 284.767 C 178.591 284.924, 191.670 280.316, 207.498 274.527 C 223.326 268.737, 236.392 264, 236.532 264 C 236.673 264, 236.951 260.512, 237.150 256.250 C 237.535 248.004, 239.864 241.954, 244.574 236.961 L 246.969 234.423 237.901 218.711 L 228.833 203 192.917 203 L 157 203 157 213.564 M 242.024 203.750 C 242.037 204.162, 245.144 209.868, 248.928 216.430 L 255.808 228.360 266.258 228.430 L 276.708 228.500 279.832 223 C 281.550 219.975, 284.800 214.238, 287.054 210.250 L 291.153 203 266.576 203 C 253.059 203, 242.011 203.338, 242.024 203.750 M 294.655 218.565 C 284.916 235.625, 285.217 233.873, 290.820 240.899 L 292.733 243.298 334.367 227.917 L 376 212.536 376 207.768 L 376 203 339.750 203.035 L 303.500 203.070 294.655 218.565 M 335.258 238.924 C 296.904 253.170, 296.016 253.561, 296.008 256.201 C 295.990 262.204, 293.690 269.110, 289.915 274.500 C 287.743 277.600, 286.125 280.443, 286.319 280.818 C 286.513 281.193, 295.804 297.363, 306.964 316.750 C 322.440 343.632, 327.709 352, 329.161 352 C 330.208 352, 332.663 352.668, 334.617 353.484 L 338.169 354.968 356.334 340.279 C 366.325 332.200, 374.831 325.119, 375.235 324.545 C 376.205 323.165, 376.220 225.231, 375.250 224.733 C 374.837 224.521, 356.841 230.907, 335.258 238.924 M 157 275.440 C 157 291.971, 157.122 293.164, 158.750 292.505 C 159.713 292.115, 161.850 291.330, 163.500 290.761 C 165.150 290.192, 166.874 289.392, 167.330 288.983 C 167.985 288.397, 158.728 259.748, 157.346 258.083 C 157.156 257.854, 157 265.665, 157 275.440 M 223 280.110 C 214.475 283.352, 206.914 285.784, 206.198 285.514 C 205.482 285.244, 205.123 285.389, 205.400 285.837 C 205.676 286.285, 200.525 288.598, 193.951 290.976 C 187.378 293.355, 182 295.361, 182 295.435 C 182 295.925, 199.969 346.302, 200.232 346.550 C 200.379 346.689, 202.181 346.959, 204.235 347.151 L 207.970 347.500 227.528 313.600 L 247.086 279.699 244.356 276.850 C 242.854 275.282, 240.923 274.048, 240.063 274.107 C 239.203 274.166, 231.525 276.867, 223 280.110 M 236.726 319.191 L 217.053 353.252 219.026 355.761 C 220.112 357.141, 221 358.884, 221 359.635 C 221 361.771, 315.214 361.652, 316.989 359.514 C 318.288 357.948, 318.005 357.421, 287.697 305 C 276.631 285.859, 276.369 285.509, 273.462 285.970 C 269.095 286.662, 262.919 286.594, 259.449 285.815 L 256.399 285.130 236.726 319.191 M 164.250 301.851 L 157 304.479 157 332.739 L 157 361 170.474 361 L 183.949 361 185.595 357.750 C 186.500 355.962, 187.929 353.716, 188.769 352.757 C 190.159 351.172, 189.501 348.732, 181.494 325.757 C 176.652 311.866, 172.423 300.213, 172.095 299.862 C 171.768 299.511, 168.238 300.406, 164.250 301.851 M 370.538 342.465 C 368.359 344.330, 366.210 345.630, 365.763 345.354 C 365.316 345.077, 365.074 345.272, 365.225 345.786 C 365.376 346.300, 361.818 349.702, 357.319 353.345 C 352.819 356.988, 348.855 360.426, 348.510 360.984 C 348.096 361.654, 352.678 362, 361.941 362 L 376 362 376 350.500 C 376 344.175, 375.663 339.017, 375.250 339.038 C 374.837 339.058, 372.717 340.601, 370.538 342.465 M 157 396.500 L 157 421 161.250 420.981 L 165.500 420.962 177.094 400.796 L 188.689 380.630 186.344 377.176 C 185.055 375.275, 184 373.334, 184 372.860 C 184 372.387, 177.925 372, 170.500 372 L 157 372 157 396.500 M 220.916 374.750 C 220.347 376.262, 218.376 379.075, 216.537 381 L 213.193 384.500 219.732 402.750 L 226.271 421 241.548 421 L 256.826 421 286.351 397.250 C 302.589 384.188, 315.903 373.163, 315.938 372.750 C 315.972 372.337, 294.839 372, 268.975 372 L 221.950 372 220.916 374.750 M 342.311 374.226 C 341.498 376.044, 341.774 377.260, 343.683 380.287 C 344.997 382.370, 345.761 384.577, 345.382 385.192 C 345.002 385.806, 345.104 386.054, 345.609 385.742 C 346.114 385.430, 351.175 393.235, 356.857 403.087 L 367.186 421 371.611 421 L 376.036 421 375.768 396.750 L 375.500 372.500 359.414 372.226 C 343.523 371.955, 343.315 371.980, 342.311 374.226 M 299.416 400.350 L 274.620 420.500 313.965 420.762 C 335.605 420.906, 353.514 420.820, 353.763 420.571 C 354.563 419.770, 331.578 380.974, 330.520 381.339 C 329.959 381.533, 328.310 381.356, 326.856 380.946 C 324.480 380.276, 321.689 382.250, 299.416 400.350 M 193.903 393.250 C 191.602 397.238, 189.024 401.713, 188.176 403.196 C 187.327 404.678, 186.196 405.621, 185.662 405.291 C 185.113 404.952, 185.013 405.212, 185.432 405.889 C 185.839 406.548, 185.755 407.630, 185.245 408.294 C 184.735 408.957, 182.863 412.087, 181.085 415.250 L 177.853 421 196.372 421 L 214.890 421 210.002 407.104 C 203.028 387.280, 202.427 386, 200.095 386 C 198.655 386, 196.906 388.048, 193.903 393.250" stroke="none" fill="#5cbcfb" fill-rule="evenodd"/></svg>