<svg xmlns="http://www.w3.org/2000/svg" width="243" height="235" viewBox="0 0 243 235" version="1.1"><path d="M 0 117.504 L 0 235.008 121.750 234.754 L 243.500 234.500 243.754 117.250 L 244.008 0 122.004 0 L 0 0 0 117.504 M 0.484 118 C 0.484 182.625, 0.603 209.063, 0.750 176.750 C 0.896 144.438, 0.896 91.563, 0.750 59.250 C 0.603 26.938, 0.484 53.375, 0.484 118 M 14 18.562 L 14 29.124 24.600 59.312 C 30.430 75.916, 35.317 89.624, 35.460 89.777 C 35.603 89.929, 48.670 85.316, 64.498 79.527 C 80.326 73.737, 93.392 69, 93.532 69 C 93.673 69, 93.951 65.513, 94.150 61.250 C 94.535 53.004, 96.864 46.954, 101.574 41.961 L 103.969 39.423 94.901 23.711 L 85.833 8 49.917 8 L 14 8 14 18.562 M 99.024 8.750 C 99.037 9.162, 102.144 14.868, 105.928 21.430 L 112.808 33.360 123.258 33.430 L 133.708 33.500 136.832 28 C 138.550 24.975, 141.800 19.238, 144.054 15.250 L 148.153 8 123.576 8 C 110.059 8, 99.011 8.338, 99.024 8.750 M 158.698 11.750 C 157.418 13.813, 153.314 20.793, 149.578 27.262 C 142.106 40.202, 142.230 38.888, 147.825 45.905 L 149.743 48.311 189.622 33.553 C 211.555 25.436, 230.287 18.375, 231.250 17.862 C 232.516 17.187, 233 15.695, 233 12.465 L 233 8 197.013 8 L 161.025 8 158.698 11.750 M 191.257 44.311 C 153.890 58.175, 153.014 58.562, 153.007 61.201 C 152.992 67.199, 150.691 74.109, 146.915 79.500 C 144.743 82.600, 143.125 85.443, 143.319 85.818 C 143.513 86.193, 152.804 102.363, 163.964 121.750 C 179.440 148.632, 184.709 157, 186.161 157 C 187.208 157, 189.663 157.668, 191.617 158.484 L 195.169 159.968 213.334 145.279 C 223.325 137.200, 231.828 130.119, 232.229 129.545 C 232.630 128.970, 232.954 106.338, 232.951 79.250 C 232.944 33.298, 232.828 30.004, 231.222 30.061 C 230.275 30.094, 212.291 36.506, 191.257 44.311 M 14 80.440 C 14 96.971, 14.122 98.164, 15.750 97.505 C 16.712 97.115, 18.850 96.330, 20.500 95.761 C 22.150 95.192, 23.853 94.413, 24.285 94.029 C 24.919 93.465, 15.651 64.557, 14.364 63.083 C 14.164 62.854, 14 70.665, 14 80.440 M 80.046 85.127 C 71.546 88.389, 63.985 90.825, 63.244 90.540 C 62.503 90.256, 62.113 90.374, 62.378 90.803 C 62.644 91.232, 57.604 93.536, 51.180 95.921 C 44.756 98.307, 39.393 100.345, 39.263 100.450 C 39.132 100.555, 39.892 103.085, 40.952 106.071 C 42.012 109.057, 46.047 120.454, 49.920 131.397 C 53.793 142.341, 57.083 151.409, 57.231 151.549 C 57.379 151.688, 59.173 151.959, 61.219 152.151 L 64.937 152.500 84.513 118.601 L 104.088 84.702 101.357 81.851 C 99.855 80.283, 97.923 79.044, 97.063 79.098 C 96.203 79.152, 88.546 81.865, 80.046 85.127 M 93.730 124.209 L 74.086 158.294 76.043 160.782 C 77.119 162.150, 78 163.884, 78 164.635 C 78 166.779, 172.215 166.651, 173.997 164.504 C 175.310 162.922, 175.013 162.370, 144.948 110.500 C 133.603 90.927, 133.293 90.510, 130.428 90.970 C 126.105 91.663, 119.918 91.594, 116.437 90.812 L 113.374 90.125 93.730 124.209 M 21.250 106.851 L 14 109.479 14 137.739 L 14 166 27.474 166 L 40.949 166 42.595 162.750 C 43.500 160.963, 44.929 158.716, 45.769 157.757 C 47.159 156.172, 46.501 153.732, 38.494 130.757 C 33.652 116.866, 29.423 105.213, 29.095 104.862 C 28.768 104.511, 25.238 105.406, 21.250 106.851 M 227.538 147.465 C 225.359 149.330, 223.210 150.630, 222.763 150.354 C 222.316 150.077, 222.074 150.272, 222.225 150.786 C 222.376 151.300, 218.787 154.727, 214.250 158.400 C 209.713 162.074, 206 165.287, 206 165.540 C 206 165.793, 212.075 166, 219.500 166 L 233 166 233 155 C 233 148.950, 232.662 144.017, 232.250 144.038 C 231.838 144.058, 229.717 145.601, 227.538 147.465 M 14 201.500 L 14 226 18.250 225.981 L 22.500 225.962 34.094 205.796 L 45.689 185.630 43.344 182.176 C 42.055 180.275, 41 178.334, 41 177.860 C 41 177.387, 34.925 177, 27.500 177 L 14 177 14 201.500 M 77.916 179.750 C 77.347 181.262, 75.386 184.075, 73.558 186 L 70.236 189.500 76.746 207.750 L 83.257 226 98.542 226 L 113.826 226 143.351 202.250 C 159.589 189.188, 172.903 178.162, 172.938 177.750 C 172.972 177.338, 151.839 177, 125.975 177 L 78.950 177 77.916 179.750 M 199.642 179.101 C 198.262 181.071, 198.343 181.584, 200.603 185.164 C 201.961 187.315, 202.761 189.577, 202.382 190.192 C 202.002 190.806, 202.104 191.054, 202.609 190.742 C 203.114 190.430, 208.175 198.235, 213.857 208.087 L 224.186 226 228.611 226 L 233.036 226 232.768 201.750 L 232.500 177.500 216.824 177.225 C 201.757 176.961, 201.090 177.034, 199.642 179.101 M 156.444 205.348 L 131.691 225.500 171 225.762 C 192.621 225.906, 210.514 225.820, 210.763 225.571 C 211.432 224.901, 188.730 186.049, 187.951 186.531 C 187.584 186.757, 185.915 186.549, 184.240 186.069 C 181.333 185.235, 180.083 186.102, 156.444 205.348 M 50.938 198.191 C 48.617 202.211, 46.024 206.713, 45.176 208.196 C 44.327 209.678, 43.196 210.621, 42.662 210.291 C 42.113 209.952, 42.013 210.212, 42.432 210.889 C 42.839 211.548, 42.755 212.630, 42.245 213.294 C 41.735 213.957, 39.863 217.088, 38.085 220.250 L 34.853 226 53.352 226 L 71.850 226 67.515 213.750 C 59.774 191.874, 59.616 191.525, 57.302 191.191 C 55.568 190.941, 54.350 192.281, 50.938 198.191" stroke="none" fill="#5cb8ff" fill-rule="evenodd"/><path d="M 14 18.562 L 14 29.124 24.600 59.312 C 30.430 75.916, 35.317 89.624, 35.460 89.777 C 35.603 89.929, 48.670 85.316, 64.498 79.527 C 80.326 73.737, 93.392 69, 93.532 69 C 93.673 69, 93.951 65.513, 94.150 61.250 C 94.535 53.004, 96.864 46.954, 101.574 41.961 L 103.969 39.423 94.901 23.711 L 85.833 8 49.917 8 L 14 8 14 18.562 M 99.024 8.750 C 99.037 9.162, 102.144 14.868, 105.928 21.430 L 112.808 33.360 123.258 33.430 L 133.708 33.500 136.832 28 C 138.550 24.975, 141.800 19.238, 144.054 15.250 L 148.153 8 123.576 8 C 110.059 8, 99.011 8.338, 99.024 8.750 M 158.698 11.750 C 157.418 13.813, 153.314 20.793, 149.578 27.262 C 142.106 40.202, 142.230 38.888, 147.825 45.905 L 149.743 48.311 189.622 33.553 C 211.555 25.436, 230.287 18.375, 231.250 17.862 C 232.516 17.187, 233 15.695, 233 12.465 L 233 8 197.013 8 L 161.025 8 158.698 11.750 M 191.257 44.311 C 153.890 58.175, 153.014 58.562, 153.007 61.201 C 152.992 67.199, 150.691 74.109, 146.915 79.500 C 144.743 82.600, 143.125 85.443, 143.319 85.818 C 143.513 86.193, 152.804 102.363, 163.964 121.750 C 179.440 148.632, 184.709 157, 186.161 157 C 187.208 157, 189.663 157.668, 191.617 158.484 L 195.169 159.968 213.334 145.279 C 223.325 137.200, 231.828 130.119, 232.229 129.545 C 232.630 128.970, 232.954 106.338, 232.951 79.250 C 232.944 33.298, 232.828 30.004, 231.222 30.061 C 230.275 30.094, 212.291 36.506, 191.257 44.311 M 14 80.440 C 14 96.971, 14.122 98.164, 15.750 97.505 C 16.712 97.115, 18.850 96.330, 20.500 95.761 C 22.150 95.192, 23.853 94.413, 24.285 94.029 C 24.919 93.465, 15.651 64.557, 14.364 63.083 C 14.164 62.854, 14 70.665, 14 80.440 M 80.046 85.127 C 71.546 88.389, 63.985 90.825, 63.244 90.540 C 62.503 90.256, 62.113 90.374, 62.378 90.803 C 62.644 91.232, 57.604 93.536, 51.180 95.921 C 44.756 98.307, 39.393 100.345, 39.263 100.450 C 39.132 100.555, 39.892 103.085, 40.952 106.071 C 42.012 109.057, 46.047 120.454, 49.920 131.397 C 53.793 142.341, 57.083 151.409, 57.231 151.549 C 57.379 151.688, 59.173 151.959, 61.219 152.151 L 64.937 152.500 84.513 118.601 L 104.088 84.702 101.357 81.851 C 99.855 80.283, 97.923 79.044, 97.063 79.098 C 96.203 79.152, 88.546 81.865, 80.046 85.127 M 93.730 124.209 L 74.086 158.294 76.043 160.782 C 77.119 162.150, 78 163.884, 78 164.635 C 78 166.779, 172.215 166.651, 173.997 164.504 C 175.310 162.922, 175.013 162.370, 144.948 110.500 C 133.603 90.927, 133.293 90.510, 130.428 90.970 C 126.105 91.663, 119.918 91.594, 116.437 90.812 L 113.374 90.125 93.730 124.209 M 21.250 106.851 L 14 109.479 14 137.739 L 14 166 27.474 166 L 40.949 166 42.595 162.750 C 43.500 160.963, 44.929 158.716, 45.769 157.757 C 47.159 156.172, 46.501 153.732, 38.494 130.757 C 33.652 116.866, 29.423 105.213, 29.095 104.862 C 28.768 104.511, 25.238 105.406, 21.250 106.851 M 227.538 147.465 C 225.359 149.330, 223.210 150.630, 222.763 150.354 C 222.316 150.077, 222.074 150.272, 222.225 150.786 C 222.376 151.300, 218.787 154.727, 214.250 158.400 C 209.713 162.074, 206 165.287, 206 165.540 C 206 165.793, 212.075 166, 219.500 166 L 233 166 233 155 C 233 148.950, 232.662 144.017, 232.250 144.038 C 231.838 144.058, 229.717 145.601, 227.538 147.465 M 14 201.500 L 14 226 18.250 225.981 L 22.500 225.962 34.094 205.796 L 45.689 185.630 43.344 182.176 C 42.055 180.275, 41 178.334, 41 177.860 C 41 177.387, 34.925 177, 27.500 177 L 14 177 14 201.500 M 77.916 179.750 C 77.347 181.262, 75.386 184.075, 73.558 186 L 70.236 189.500 76.746 207.750 L 83.257 226 98.542 226 L 113.826 226 143.351 202.250 C 159.589 189.188, 172.903 178.162, 172.938 177.750 C 172.972 177.338, 151.839 177, 125.975 177 L 78.950 177 77.916 179.750 M 199.642 179.101 C 198.262 181.071, 198.343 181.584, 200.603 185.164 C 201.961 187.315, 202.761 189.577, 202.382 190.192 C 202.002 190.806, 202.104 191.054, 202.609 190.742 C 203.114 190.430, 208.175 198.235, 213.857 208.087 L 224.186 226 228.611 226 L 233.036 226 232.768 201.750 L 232.500 177.500 216.824 177.225 C 201.757 176.961, 201.090 177.034, 199.642 179.101 M 156.444 205.348 L 131.691 225.500 171 225.762 C 192.621 225.906, 210.514 225.820, 210.763 225.571 C 211.432 224.901, 188.730 186.049, 187.951 186.531 C 187.584 186.757, 185.915 186.549, 184.240 186.069 C 181.333 185.235, 180.083 186.102, 156.444 205.348 M 50.938 198.191 C 48.617 202.211, 46.024 206.713, 45.176 208.196 C 44.327 209.678, 43.196 210.621, 42.662 210.291 C 42.113 209.952, 42.013 210.212, 42.432 210.889 C 42.839 211.548, 42.755 212.630, 42.245 213.294 C 41.735 213.957, 39.863 217.088, 38.085 220.250 L 34.853 226 53.352 226 L 71.850 226 67.515 213.750 C 59.774 191.874, 59.616 191.525, 57.302 191.191 C 55.568 190.941, 54.350 192.281, 50.938 198.191" stroke="none" fill="#1c5474" fill-rule="evenodd"/></svg>